<?xml version="1.0" encoding="utf-8"?>
<!-- Generator: Adobe Illustrator 26.4.1, SVG Export Plug-In . SVG Version: 6.00 Build 0)  -->
<svg version="1.1" id="Layer_1" xmlns="http://www.w3.org/2000/svg" xmlns:xlink="http://www.w3.org/1999/xlink" x="0px" y="0px"
	 viewBox="0 0 2534 2281.2" style="enable-background:new 0 0 2534 2281.2;" xml:space="preserve">
<style type="text/css">
	.st0{clip-path:url(#XMLID_00000155842680902214407970000003083850332370054804_);fill:#4A4A4A;}
	.st1{clip-path:url(#XMLID_00000155842680902214407970000003083850332370054804_);fill:#FCFEFE;}
	.st2{clip-path:url(#XMLID_00000155842680902214407970000003083850332370054804_);fill:#4B4A4B;}
	.st3{clip-path:url(#XMLID_00000155842680902214407970000003083850332370054804_);fill:#9D9D9D;}
	.st4{clip-path:url(#XMLID_00000155842680902214407970000003083850332370054804_);}
	.st5{fill:#4A4A4A;}
	.st6{fill:#4B4A4B;}
	.st7{fill:#FFFFFF;}
	.st8{fill:#FFFFFF;stroke:#4B4A4B;stroke-width:5.1804;stroke-miterlimit:10;}
	.st9{fill:#579285;}
	.st10{fill:#EFAC3F;}
	.st11{fill:#C9C9C9;}
	.st12{opacity:5.000000e-02;fill:#4A4A4A;enable-background:new    ;}
	.st13{fill:#569285;}
	.st14{fill:#E2696A;}
	.st15{fill:#E3E3E3;}
	.st16{fill:#4A4A4A;stroke:#4A4A4A;stroke-width:2;stroke-miterlimit:10;}
	.st17{fill:none;}
	.st18{fill:#E4E4E3;}
	.st19{fill:none;stroke:#CAC9C9;stroke-width:2.9697;stroke-miterlimit:10;}
</style>
<g>
	<defs>
		<path id="XMLID_00000026152931109420163500000013629676482435020694_" d="M582.2,1588.1c0,11.1,9.1,20.2,20.2,20.2h1366.8
			c11.1,0,20.2-9.1,20.2-20.2v-935H582.2"/>
	</defs>
	<use xlink:href="#XMLID_00000026152931109420163500000013629676482435020694_"  style="overflow:visible;fill:#F2F2F2;"/>
	<clipPath id="XMLID_00000004512988569929233200000010938293882940747927_">
		<use xlink:href="#XMLID_00000026152931109420163500000013629676482435020694_"  style="overflow:visible;"/>
	</clipPath>
	
		<circle style="clip-path:url(#XMLID_00000004512988569929233200000010938293882940747927_);fill:#4A4A4A;" cx="805" cy="1993.7" r="0.5"/>
	<path style="clip-path:url(#XMLID_00000004512988569929233200000010938293882940747927_);fill:#FCFEFE;" d="M1318.2,2049
		c0,0,11.6,63.3,22.2,93.7c-15.7,12.3-34.5,19.8-54.4,21.8l-42.4-102.1C1269.3,2066.3,1295.5,2061.6,1318.2,2049z"/>
	<path style="clip-path:url(#XMLID_00000004512988569929233200000010938293882940747927_);fill:#4B4A4B;" d="M1242.4,2062.3
		l5.3,12.6l22.9,55.2l14.3,34.5c0.1,0.5,0.5,0.9,1.1,1l4.3-0.5c18.6-2.5,36.1-9.9,50.8-21.6c0.3-0.2,0.5-0.7,0.3-1.1
		c-2.7-7.9-4.8-15.8-7-23.8c-5.9-23-10.9-46.3-15.2-69.7c0,0,0,0,0-0.3c-0.3-0.6-1-0.8-1.5-0.5c0,0,0,0,0,0c-1.3,0.9-2.6,1.7-4,2.3
		c-21.7,10.6-46,14.4-69.9,10.9c-1.6,0-1.4,2.1,0,2.3c9.1,1.3,18.3,1.5,27.5,0.8c11.9-1,23.7-3.7,34.8-8.1c4.5-1.7,8.8-3.7,12.9-6.2
		l-1.7-0.6c0.5,2.8,1.1,5.4,1.6,8.2c2.7,13.7,5.4,27.2,8.6,40.7c3.2,15.2,7.3,30.1,12.1,44.9l0.3-1.1c-5,4.1-10.5,7.6-16.3,10.6
		c-8.2,4.1-16.9,7.1-25.8,9c-3.7,0.8-7.5,1.4-11.3,1.7l1.1,1l-5.3-12.6l-22.8-55.1l-14.3-34.5
		C1244.2,2060.7,1241.9,2061.3,1242.4,2062.3z"/>
	<path style="clip-path:url(#XMLID_00000004512988569929233200000010938293882940747927_);fill:#4B4A4B;" d="M1286,2164.5
		c0,0-25.3,49.9-50.2,65.6c-9.5,6.2-67.9,12.4-65.6,29.5c1.1,8.4,41.8,13.9,41.8,13.9s132.1-1.6,141.5-25.3
		c9.5-23.8,3.1-38.4,15.7-52.7c12.6-14.3-28.9-52.4-28.9-52.4L1286,2164.5z"/>
	<path style="clip-path:url(#XMLID_00000004512988569929233200000010938293882940747927_);fill:#FCFEFE;" d="M1517.3,2077.2
		c-5.6,31.2-9.3,62.8-11,94.5c-12.2,13.3-66-1.4-66-1.4l-4-90.7C1491.4,2090.5,1517.3,2077.2,1517.3,2077.2z"/>
	<path style="clip-path:url(#XMLID_00000004512988569929233200000010938293882940747927_);fill:#4B4A4B;" d="M1435.3,2079.5
		l0.5,11.2l2.2,48.8l1.4,30.8c0,0.5,0.3,0.9,0.8,1.1c7,1.9,14.3,3.4,21.5,4.8c10.7,2.2,21.6,2.8,32.5,1.9c4.2-0.3,8.2-1.7,11.7-4
		c0.8-0.5,1.5-1.2,1.9-2c0.1-1,0.1-2,0-3v-3.6c0-4.8,0.5-9.5,1-14.3c1.9-24.6,5.1-49.1,9.5-73.3c0.1-0.3,0.1-0.5,0-0.8
		c-0.3-0.5-1-0.8-1.5-0.5c-1.1,0.5-2.3,0.9-3.6,1.4c-8.3,2.7-16.8,4.3-25.5,4.8c-17.2,1-34.4-0.3-51.3-3.9c-1.4-0.3-2,1.9-0.6,2.1
		c10.7,2.2,21.5,3.6,32.3,4.2c12.5,0.9,25.1,0.1,37.5-2.5c4.3-0.7,8.5-2,12.4-3.9l-1.7-1.3c-1.7,8.7-3.1,17.4-4.4,26.3
		c-2.5,16.6-4.5,33.3-5.7,50.2c-0.5,4.8-0.8,9.5-1,14c-0.1,0.7-0.1,1.4,0,2.1c-0.1,0.5-0.1,1,0,1.6l-0.8,0.6c-0.7,0.5-1.4,1-2.1,1.4
		c-4,1.9-8.3,2.8-12.8,2.8c-10.8,0.2-21.6-0.8-32.1-3.1c-5.8-1.1-11.4-2.3-16.9-3.9l0.8,1.1l-0.4-11.2l-1.8-48.8l-1.4-30.8
		C1437.3,2078.1,1435,2078.1,1435.3,2079.5z"/>
	<path style="clip-path:url(#XMLID_00000004512988569929233200000010938293882940747927_);fill:#4B4A4B;" d="M1370.4,2217.3
		c-10.6,7.6-50.2,21.9-66.6,22.7c-16.5,0.8-25.5,6-20.2,16.5c3.4,6.9,49.6,11.5,49.6,11.5l116.5-4.2c0,0,71-3.9,77-13.2
		c6-9.3-2.3-38.1-6.7-44.7c-4.3-6.7-5.1-52.4-10.1-47.6s-56.7,11.4-71.6,5.1C1427.1,2171,1380.9,2209.7,1370.4,2217.3z"/>
	<path style="clip-path:url(#XMLID_00000004512988569929233200000010938293882940747927_);fill:#9D9D9D;" d="M1342.6,2149.1
		c0.3,0,0.5-0.5,0-0.6l0,0h-0.3v0.9L1342.6,2149.1z"/>
	<g style="clip-path:url(#XMLID_00000004512988569929233200000010938293882940747927_);">
		<circle class="st5" cx="1056.2" cy="2056.6" r="0.6"/>
		<path class="st6" d="M1273.2,1173.7l-12.7,20.3l-61.2-20.7C1223.8,1169.5,1248.7,1169.7,1273.2,1173.7z"/>
		<path class="st7" d="M1264.5,923.2c0,0-15,127.6-48.5,156.5s-114,52.6-183.1,43.6c-123.1-16.1-184.6-98.4-208.8-122.2
			c-24.1-23.8-15.1-25.5-11.7-28.4c-4.2,4.2-21.8,7.4-35.3-0.4c-11-6.4-74.7-41.4-93.2-53.4c-25.2-15.9-19.5-35.5-2.5-25.9
			c10.1,6,19.9,12.5,29.4,19.4c-6.8-3.7-43.3-28.4-49.2-33.2c-10.4-8.4-2.5-28.2,12.7-19c1.9,1.2,8.4,6.4,10.7,7.8
			c11,6.6,30.4,22,30.4,22l-30.4-22c-12.2-8.8-20.7-15.2-23.9-17.3c-9-6.3,0.9-28.9,20.3-15.2c19.4,13.7,52.6,38.2,52.6,38.2
			l-52.5-38.5c-2.7-6.7,0.6-14.3,7.3-17c1-0.4,2-0.7,3.1-0.8c15.5-4,88.1,47.7,96.5,50.4c8.4,2.7,4.8-13.2,3.1-28.6
			c-1.2-10.4-2.7-28,8.1-31.4c4.4-1.3,14.9,4.2,25.3,33c42.9,118.3,16.6,81,33.8,97.2c20.1,18.8,83.7,60.9,172.8,59
			c52.3-1,100.6-28.3,128.5-72.5L1264.5,923.2z"/>
		<path class="st6" d="M1161.1,925.6c0.4-0.6,0.3-1.5-0.4-1.9c-0.2-0.2-0.5-0.2-0.8-0.2c-0.8-0.6-2-0.3-2.5,0.5c0,0,0,0,0,0
			c-0.5,1-1,1.9-1.7,2.8c-12.2,18.6-28.4,34.3-47.3,46c-15.2,9.6-32,16.4-49.7,19.9c-23,4.2-46.5,4.4-69.5,0.8
			c-38.4-5-75.2-18.4-107.9-39.2c-8.5-5.6-16.6-11.8-24.1-18.6c-1.2-1-2.4-2-3.7-3.1c-0.3,0-0.8-0.7-1-0.7c-0.2,0,0.4,0,0,0
			c0.4,0,0,0.5,0,0c0-0.5,0-2.2-0.3-3.4c-1-6.9-2.4-13.7-4.4-20.3c-4.6-16.9-10.4-33.5-16.1-50c-3.6-11.7-8.1-23.1-13.5-34.1
			c-2.9-6.2-7.3-11.6-12.8-15.5c-3.5-2.5-8.2-2.2-11.3,0.7c-6.2,5.2-6.2,15-5.9,22.5c0.5,9.8,2.9,19.6,3.1,29.4c0,2.5,0,7.1-3.6,5.7
			c-1.2-0.4-2.3-1-3.4-1.7c-23.8-13.5-46-29.9-70.7-41.9c-9.1-4.6-20.7-10.4-29.9-3.7c-4.4,3.5-6.4,9.2-5.2,14.7
			c0.5,2.7,1.6,3.4,3.6,4.9l50.4,36.3c1.7,1.3,3.4-1.5,1.7-2.8c-8.4-6.3-16.9-12.4-25.4-18.6c-6.2-4.6-12.5-9-18.8-13.5
			c-5.1-4.7-11.1-8.2-17.7-10.4c-1.5-0.3-2.9-0.3-4.4,0c-7.7,0.9-13.2,7.8-12.4,15.5c0.7,3.7,3.1,6.9,6.4,8.6l18.6,13.5
			c11,8.1,22.2,16.1,33.3,24c1.6,1,3.6-1.6,2-2.7c-9.6-7.8-19.6-15-30-21.6c-7.6-4.8-19-17.1-27.9-7.5c-3.1,3.7-4.2,8.6-3.1,13.2
			c1.2,4,3.9,7.4,7.5,9.6c8.8,6.6,18.1,12.6,27.4,18.9c4.7,3.1,9.3,6.1,14,9.1c2.1,1.9,4.6,3.2,7.3,4.1c0.6,0,1.2-0.3,1.5-0.9
			c1-2.2-2-3.5-3.4-4.4c-3.6-2.4-7.1-4.6-10.8-6.9c-3.7-2.4-8.4-5.2-12.7-7.8c-3.4-2.4-7.2-4.2-11.3-5.2c-4.4-1-8.7,1.8-9.7,6.1
			c-0.2,1-0.3,2-0.1,3c0.9,9.5,9.6,16.9,16.9,21.7c13.4,8.8,27.7,16.4,41.8,24.3l45.1,25.3c6,3.8,12.5,6.7,19.4,8.4
			c7.8,1.3,19.3,1.6,25.5-4.2c1.7-1.6-0.7-3.7-2.4-2.4c-1.2,0.9-2.3,1.9-3.4,2.9c-4.4,5.2,0.8,12.1,4,16.2
			c5.6,6.9,12.2,13,18.3,19.4c10.8,11.7,21.8,23.3,33.5,34.1c36.3,34.1,80.3,58.9,128.2,72.5c30.8,8.5,62.8,11.6,94.6,9.2
			c31.1-2.3,61.6-9.7,90.4-21.7c18.8-7.9,39.1-18.1,50.2-35.8c10-17.7,17.4-36.8,22-56.6c7.7-29.2,13.4-58.9,16.9-88.9
			c0-0.9-0.7-1.6-1.5-1.7c-0.1,0-0.1,0-0.2,0h-13l-56.5,1.1l-35.5,0.5c-0.9-0.2-1.8,0.5-2,1.4c-0.2,0.9,0.5,1.8,1.4,2
			c0.2,0,0.4,0,0.6,0h13l56.3-0.7l35.5-0.5l-1.7-1.7c0,0.7,0,1.2,0,1.9c-4,33.3-10.7,66.2-20.1,98.4c-2.9,9.8-6.4,19.5-10.4,28.9
			c-3.2,7.8-7.5,15-12.7,21.6c-6.7,7.2-14.7,13.2-23.5,17.6c-11.7,6.4-23.9,11.8-36.5,16.1c-29.8,10.3-61.1,15.7-92.6,16.1
			c-30.8,0.2-61.5-4.9-90.6-15c-44-15.5-84.1-40.7-117.1-73.7c-10.4-10-19.8-20.7-29.8-31.1c-6.4-6.7-14.7-13-18.6-21.8
			c-1.9-4.4,0.4-5.2,3.2-7.9l-2.3-2.4c-3.6,2.4-7.8,3.7-12.2,3.7c-6.1,0.6-12.3-0.4-17.9-2.7c-5.2-2.5-10.4-5.4-15.2-8.4
			c-26.7-14.9-53.6-29.3-79.5-45.3c-7.1-4.4-15.5-10.4-17.7-18.9c-1-2.2-0.6-4.9,1.2-6.6c2.2-1.9,5.5-0.8,7.9,0
			c6.7,3.3,13,7.2,19.1,11.5c3,2,6.1,3.9,9.1,5.9l3.1,2c0.3,0.3,1.3,1.2,0.8,0.5v-1.7l0,0l1.5-0.8c1.3,0,0,0-0.3-0.4l-1.9-1.2
			c-1.9-1-3.6-2.2-5.2-3.4c-4.8-3.1-9.6-6.3-14.4-9.5c-8.2-5.4-16.2-11-24.2-16.7c-3.2-1.9-5.6-5-6.6-8.6c-1.2-4.6,0.9-9.4,5.2-11.5
			c5.2-1.9,9.9,2.2,13.8,5.2c3.9,3,8.8,5.9,13.2,9c7.9,5.2,15.5,11.1,23,17l2-2.7c-11.9-8.4-23.5-16.9-35.2-25.3
			c-5.6-3.9-11-8-16.6-12c-2.8-2.2-5.2-3.9-5.2-7.9c0.1-4.2,2.6-7.9,6.4-9.6c5.8-2.4,11.7,1.3,16.3,4.6c17,12,33.9,24.3,50.9,36.8
			l1.7-2.8l-5.9-4.4l-31.2-23l-12.3-9c-0.4-0.3-2-1.9-2.5-1.9c0.5,0,0.5,1.6,0.5,0.4l-0.5-2.2v-0.8c-0.5-6.3,4.1-11.8,10.4-12.3
			c4.2,0,8.4,1.1,12.2,3c13.2,5.7,25.8,12.5,37.9,20.3c11.7,7.1,23.2,14.7,35,21.8c2.9,2.1,6,3.8,9.3,5.2c7.1,2.7,8.3-4.7,8.1-9.9
			c-0.4-10-2.7-19.8-3.1-29.8c0-5.9,0-19.1,8.3-20.1c3.7-0.5,7.6,3.9,9.8,6.4c6.3,8.9,11.2,18.8,14.4,29.3
			c6.7,18.8,13.3,37.5,18.9,56.6c2.5,8,4.5,16.1,5.9,24.3c0,2.2,0.2,4.3,0.7,6.4c0.3,0.8,0.9,1.4,1.6,1.9c0.6,0.6,1.3,1.1,2,1.5
			c5.9,4.7,11.3,9.9,17.4,14.3c12.3,8.8,25.5,16.5,39.2,22.8c39.3,18.5,82.5,27.2,125.9,25.3c35-1.7,68.4-15,94.9-37.9
			c12.1-9.9,22.4-21.9,30.4-35.3H1161.1z"/>
		<path class="st8" d="M1556.9,1213.6c25.4,85.7,45.8,172.8,61,260.8c26.6,160.6,47,309.5-1.1,662.5c-20.2,18.3-42.9,15.5-118,15.5
			c-112.1-379.8-153.2-627.9-153.2-627.9s-84,130.7-68.9,181.9c15.1,51.2,117,320.9,119.1,419.1c-26.4,20.7-75.2,0-100.2,26.8
			c-187.5-298.9-193.1-380.5-205.8-447.1s0-119.1,19.1-210.8c19.1-91.6,164.3-320.7,164.3-320.7L1556.9,1213.6z"/>
		<path class="st6" d="M1516.1,1228.2c-0.8-2.2-4.2-1.3-3.2,1c3.7,9.6,7.5,19.6,11,29.4c27.8,79.1,48,160.6,60.4,243.5
			c12.1,78.4,19,157.5,20.7,236.8c1.6,67.3,0,134.4-4.6,201.3c-3.1,47-7.6,93.7-13.9,140.3c-2.3,17.6-4.9,35.3-8.1,52.7
			c-0.5,2,2.8,3.1,3.2,0.8c0-0.3,0-0.5,0-0.8c1.6-6.7,2.8-13.5,3.4-20.3c2.2-14.9,4.4-29.7,6.3-44.6c6.3-49.5,10.8-99.4,13.7-149.3
			c4.2-69.1,4.9-138.3,2.4-207.2c-2.7-80-10.8-159.8-24.3-238.7c-14.1-83.6-36.4-165.5-66.8-244.6L1516.1,1228.2z"/>
		<path class="st6" d="M1342.3,1461.6c1.5-1.5-0.9-4-2.4-2.8l-2,2.2c-13.5,14.9-26.6,30.3-39.2,46c-20.8,25.3-40,51.8-57.5,79.5
			c-8.5,13.3-16,27.1-22.5,41.4c-5.8,11.8-9.7,24.4-11.8,37.4c-2.2,16.6,2.7,33.3,6.9,49.1c6.3,23.7,13.9,47,21.7,70.3
			c9.6,29.1,19.9,58,30.3,86.9c11,30.3,22.1,60.5,33.5,90.8c10.2,27,20.4,54.1,30.8,81.1c7.5,19.6,15.1,39.1,22.7,58.5
			c2.8,7.6,5.8,15.1,8.8,22.5c0.7,2.1,4.1,1.2,3.2-0.8l-0.5-1.3c-4.2-10.7-8.2-21.4-12.5-32.1l-24.9-64.4
			c-10.4-27.9-21.1-55.8-31.6-83.9c-11.1-30.1-22.1-60.2-32.9-90.4c-9.8-27.9-19.6-55.8-28.8-84c-6.9-21.4-13.7-42.9-19.1-64.9
			c-1.7-6.8-3.1-13.7-4-20.7c-0.9-10.6,0.4-21.4,3.9-31.4c9-29.6,26.2-56.6,43.5-82c17.3-25.4,36.7-50.4,57-74.4
			c9-10.8,18.3-21.6,27.9-32.1L1342.3,1461.6z"/>
		<polygon class="st7" points="1415.5,725.1 1372.2,741.1 1372.2,782.6 1415.5,782.6 		"/>
		<path class="st6" d="M1417,782.6c0.1-0.9-0.6-1.7-1.5-1.7c-0.1,0-0.1,0-0.2,0h-43.3l1.7,1.7v-41.4l-1.1,1.7l5.2-2l23.3-8.7
			l14.7-5.2l-2.2-1.7v57.5c0,0.9,0.7,1.6,1.5,1.7c0.1,0,0.1,0,0.2,0c0.8,0,1.5-0.7,1.3-1.7v-58.2c-0.3-0.9-1.2-1.4-2.1-1.2l-5.2,2.1
			l-23.3,8.6l-14.6,5.2c-0.7,0.2-1.2,0.9-1.2,1.7v41.4c0,0.9,0.7,1.6,1.5,1.7c0.1,0,0.1,0,0.2,0h43.3
			C1416.2,784.1,1417,783.4,1417,782.6C1417,782.6,1417,782.6,1417,782.6z"/>
		<polygon class="st6" points="1372.2,764.4 1372.2,741.1 1394,740.1 		"/>
		<path class="st9" d="M1226.3,937.7c0,0-9.3,84.5-26.2,233.6c69.5-8.6,146.2,17.4,146.2,17.4s157.2,45.3,249.2,19.1
			c-7.8-109.2-86.2-264.7-86.2-264.7l176.1-22.5c0,0-15.5-85.1-61.9-113.1c-44.3-26.7-75.1-20.7-158.3-25
			c-83.2-4.3-198.9-3.6-237,12.3c-44.6,18.8-82.9,124.3-82.9,124.3L1226.3,937.7z"/>
		<path class="st9" d="M1147.6,920.3l0.9-2.2c5.2-14.4,11.7-28.6,18.4-42.4c9.6-20.9,21.9-40.5,36.5-58.2
			c6.3-7.5,13.8-13.9,22.3-18.8c7.9-3.8,16.4-6.4,25-7.8c25.8-4.6,52-7.2,78.2-7.6c31.6-1.3,62.9-1.2,94.6-0.4s63.3,2.5,95,3.6
			c22.8,0.7,46.2,1,68.3,7.1c21.5,5.3,41,16.8,55.9,33.2c14.5,18.1,25.4,38.8,32.1,61c3.9,11,6.9,22.3,9.1,33.8l1.7-2.2l-21.7,2.7
			l-94.9,12.2l-59.7,7.6c-0.3-0.1-0.6-0.1-0.8,0c-0.8,0.5-1.1,1.5-0.7,2.4c3.4,6.6,6.4,13.4,9.6,20.1
			c16.2,34.8,31.1,70.5,43.6,106.7c15.5,44.1,29.2,90.3,32.6,137.1l1.1-1.7l-10.4,2.5c-30.7,5.9-62.1,7.4-93.2,4.2
			c-30.1-2.4-60-6.7-89.6-12.8c-17.3-3.6-34.5-7.5-51.5-12.2c-12.3-3.4-24.5-7.3-37-10.4c-36.8-8.3-75.4-12.8-112.9-8.3l1.7,1.7
			l10-88.9c3.9-35.6,7.9-71.5,12-107.3c1.6-12.5,2.9-24.9,4.2-37.4c0.1-0.8-0.4-1.5-1.2-1.7l-10.4-2.3l-70.5-16
			c-0.9-0.2-1.8,0.3-2,1.2c-0.2,0.9,0.3,1.8,1.2,2l10.4,2.4l70.5,16.2l-1.2-1.7c-0.5,3.9-0.9,8-1.3,12c-3.1,25.9-6,51.8-8.8,77.7
			c-5.2,48-10.8,95.8-16.2,143.9c-0.1,0.9,0.6,1.6,1.5,1.7c0.1,0,0.1,0,0.2,0c5.2-0.7,10.4-1,15.5-1.3c36.3-1.4,72.7,2.7,107.8,12.2
			c9.8,2.5,19.6,5.8,29.6,8.4c19.6,5.2,39.6,9.6,59.5,13.4c30.4,5.9,61.1,9.8,92,11.5c30.5,1.3,62.2,0.7,91.5-7.8
			c0.7-0.2,1.2-0.9,1.2-1.7c-2.2-25.9-6.8-51.5-13.7-76.6c-12.1-44.2-27.3-87.5-45.6-129.5c-8.6-20.1-17.4-40.1-27.2-59.5l-1.6,2.5
			l21.7-2.7l95-12.2l59.7-7.6h0.5c0.9-0.3,1.4-1.1,1.2-2l-0.5-2.5c-3.4-16.2-8.3-32-14.6-47.3c-8.8-21.4-20.7-43.3-39.1-58.1
			c-8.9-6.9-18.7-12.5-29.2-16.6c-9.5-4-19.4-6.9-29.6-8.7c-25-4.4-50.9-3.9-76.3-4.7c-32.6-1-65.1-3.1-97.7-3.4
			c-31.6-0.5-63.3,0-94.7,1.9c-13.2,0.8-26.2,1.9-39.4,3.7c-10.3,1.3-20.6,3.4-30.6,6.2c-8.4,2.5-16.3,6.8-22.9,12.5
			c-8.2,7.1-15.4,15.2-21.7,24.1c-13.1,18.8-24.3,38.9-33.5,59.9c-4.8,10.4-9.3,20.7-13.2,31.6
			C1143.6,920.8,1146.9,921.7,1147.6,920.3z"/>
		<path class="st6" d="M1536.2,1458.4c0.4-0.7,0.1-1.7-0.6-2.1c0,0-0.1,0-0.1-0.1c-0.7-0.5-1.7-0.3-2.2,0.4c0,0-0.1,0.1-0.1,0.1
			c-3.2,5.5-6.8,11-10.4,16.2c-3.9,5.4-8.4,10.5-13.3,15c-0.7,0.7-1.6,1.2-2.2,1.9l0,0l-0.4,0.3l-0.7,0.5c-0.4,0.3-0.9,0.6-1.3,0.8
			c-2,0.8,0,3.9,1.7,2.9l1.7-1.2c3.9-2.9,7.5-6.3,10.6-10c6.6-7.8,12.5-16.1,17.6-25L1536.2,1458.4z"/>
		<path class="st7" d="M1360.3,1335.3l29.5,10.4l47,16.5l10.7,3.7c2.9,1.1,6.2,0.8,8.8-0.8c1.2-0.6,2.2-1.4,3-2.5
			c1-1.4,1.7-3,1.9-4.7l1.5-6l4.1-16.2l6.1-23.7l7.5-29.1l8.2-31.9l8.2-32.1l7.7-30l6.5-25.4l4.6-18.2c0.8-2.8,1.6-5.8,2.2-8.7v-0.4
			c0.7-5.5-3.2-10.5-8.7-11.2c-2.7-0.3-5.4,0.4-7.5,2.1l-1.8,1.9c-1,1.4-1.7,3-1.9,4.7l-1.5,5.9l-4.1,16.2l-6.1,23.7l-7.1,29.2
			l-8.2,31.9l-8.3,32.1l-7.7,30l-6.9,25.3l-4.7,18.2c-0.7,2.9-1.5,5.8-2.2,8.7v0.4l13.7-8.1l-29.5-10.4l-47-16.5l-10.6-3.9
			c-5.1-2.1-11,0.4-13,5.6c-2.1,5.1,0.4,11,5.6,13l0,0V1335.3z"/>
		<g>
			<path class="st10" d="M1522.9,1512c125.3,0,226.8-101.5,226.8-226.8s-101.5-226.8-226.8-226.8c-125.3,0-226.8,101.5-226.8,226.8
				l0,0C1296.3,1410.4,1397.7,1511.9,1522.9,1512z"/>
			<path class="st7" d="M1615.6,1379.8h-184c-20,0-36.2-16.1-36.3-36.1c0,0,0,0,0,0v-116.1c0-20,16.1-36.2,36.1-36.3l0,0h184.2
				c20,0,36.2,16.1,36.3,36.1c0,0,0,0,0,0v115.5C1652,1363.1,1635.8,1379.6,1615.6,1379.8z M1430.3,1209.4
				c-9.9,0.2-17.9,8.2-18.1,18.1v115.3c0.2,9.9,8.2,17.9,18.1,18.1h184c9.9-0.2,17.9-8.2,18.1-18.1v-115.3
				c-0.2-9.9-8.2-17.9-18.1-18.1H1430.3z"/>
			<path class="st7" d="M1522.9,1302.2c-5.6-0.1-11-1.9-15.5-5.2l-99.8-80.3c-3.9-2.6-4.6-9.1-1.9-13c2.7-3.9,9.1-4.6,13-1.9
				l99.8,79.6c2.5,1.9,6,1.9,8.4,0l97.8-79.1c4.1-3.1,9.9-2.2,13,1.9c0,0,0,0,0,0l0,0c2.6,4.6,2.6,9.7-1.9,13l-97.8,79
				C1533.8,1300,1528.5,1302.2,1522.9,1302.2z"/>
		</g>
		<path class="st7" d="M1509.3,943c0,0,55.9,116.7,79.3,208.5s-14.7,194.1-22,231.6c-9.1,46.6-44.7,23.5-61.2,110.2
			c-12.8,14.2-15.5,19.9-23.5,38c-5.6,12.7,10.4,19.6,21.7,12.3c-0.9,16.4,25.9,17.4,31.6,14.9c3.1,6.1,16.7,11.2,32.8,7.6
			c8.4,6.4,50.9,10.4,76.3-114.4c92.1-166,91.4-232.3,84.9-299.7c-6.6-67.4-66.1-227.9-66.1-227.9L1509.3,943z"/>
		<path class="st6" d="M1661.5,924.9c0.3,0.7,0.5,1.6,0.8,2.2c5.7,15.9,11.4,31.8,16.9,47.8c9.5,27.4,18.4,55,26.6,82.9
			c8.4,26.5,15.1,53.5,19.9,80.8c2.9,18.5,4.4,37.1,4.4,55.8c0.1,20.6-1.9,41.2-6,61.3c-5.8,27.4-14.2,54.3-25,80.1
			c-15.6,37.8-33.4,74.6-53.4,110.2c-1.5,2.4-2.7,5-3.4,7.8c-0.5,2.7-1,5.2-1.7,8.1c-1.2,5.2-2.3,10.4-3.7,15.5
			c-2.3,9-4.9,17.8-7.9,26.4c-4.4,13.1-10.2,25.6-17.4,37.4c-6.9,11-17.4,23.7-31.1,25.5c-3.1,0.5-6.3,0.2-9.3-1
			c-0.5-0.2-1-0.5-1.5-0.8c-0.5-0.3-1.1-0.5-1.7-0.5c-2.8,0-5.8,1-8.6,1c-7.1,0-18.4-0.8-22.3-7.9l0,0c-0.4-0.8-1.5-1.2-2.3-0.7
			c0,0,0,0-0.1,0c-5.3,1.5-11,1.4-16.2-0.4c-6.6-1.7-13-5.6-12.8-13.2c0.1-0.3,0.1-0.6,0-0.8l0,0c-0.5-0.8-1.5-1.1-2.4-0.7
			c-4.7,3.3-10.9,3.7-16.1,1c-6.3-3.7-3.9-9.8-1.5-15.1c2.3-5.4,4.9-10.7,7.8-15.9c3.1-5.2,6.7-10.2,10.8-14.7
			c1.3-1.1,2.4-2.3,3.2-3.7c0.6-1.9,1-3.9,1.2-5.9c0.9-3.4,1.7-6.9,2.5-10.4c4.1-19.1,13.4-36.6,26.9-50.7
			c8.7-8.4,18.8-15,24.7-25.9c3.3-6.7,5.6-13.8,6.7-21.1c2-8.6,4.4-17.3,6.6-25.9c14-53.4,25.9-108.8,21.1-164.2
			c-3.4-28.8-10-57.2-19.8-84.5c-8.6-26.4-18.4-52.5-28.9-78.2c-11.4-28.6-23.6-57-37-84.7l-1.6,2.5l19-2.4l82.9-10l51.8-6.2
			c2.2-0.4,2.2-3.7,0-3.4l-19,2.4l-82.9,10L1510,941c-0.3-0.1-0.6-0.1-0.8,0c-0.8,0.4-1.1,1.4-0.7,2.2c0,0,0,0.1,0.1,0.1l0.8,1.7
			c16.3,34.5,31.1,69.8,45,105.3c10.4,26.7,19.8,53.6,27.8,81c4.4,14.1,7.7,28.5,10.1,43.1c2.3,15.8,3.2,31.7,2.7,47.7
			c-0.9,29.7-4.7,59.2-11.5,88.1c-4.8,21.7-11,42.9-16.1,64.4c-1.3,7.6-3.4,15.1-6.3,22.3c-2.7,5.5-6.4,10.5-11,14.6
			c-4.4,4.2-9.3,7.8-13.7,12c-5.5,5.1-10.3,11-14.2,17.4c-5.6,9.6-9.9,19.9-12.8,30.6c-1.1,3.7-2.2,7.6-3,11.4
			c-0.3,4-1.6,7.9-3.7,11.3c-3.8,4.3-7.2,8.9-10.4,13.7c-3,5-5.8,10.2-8.1,15.5c-2.4,5.2-5.8,10.4-3.9,15.9
			c3.4,10.4,17.3,10.1,24.9,5.2l-2.5-1.5c-0.4,8.6,6.4,13.8,14,16.1c6.3,2.3,13.1,2.6,19.6,0.9l-2.4-0.7c3.4,6.1,11.3,8.4,17.6,9.3
			c4.7,0.8,9.5,0.8,14.2,0c1.8-0.3,1.3-0.8,2.8,0c1.4,0.6,2.8,1.1,4.2,1.4c4.2,0.8,8.5,0.5,12.5-0.9c15.5-5.2,25.9-20.3,33.5-34
			c7.1-13.7,12.9-28.1,17.1-42.9c3.1-10.4,5.8-20.3,7.9-30.6c0.4-3.1,1.1-6.1,2-9.1c1.3-2.8,2.8-5.5,4.4-8.1
			c2.9-5.2,5.8-10.4,8.4-15.5c18.6-34.3,35-69.8,49.1-106.2c9.7-25.1,16.9-51.2,21.6-77.7c3.2-19.9,4.4-40.1,3.7-60.2
			c-0.5-20.1-2.7-40.1-6.6-59.8c-5.9-28.9-14.2-57.3-22.8-85.4c-7.9-27.1-16.7-54-26.2-80.5c-4.2-11.9-8.3-23.7-12.6-35.4
			c-0.2-0.9-1.2-1.5-2.1-1.2c-0.9,0.2-1.5,1.2-1.2,2.1C1661.4,924.7,1661.4,924.8,1661.5,924.9z"/>
		<path class="st6" d="M1543.3,1504.6c0.6-0.7,0.4-1.8-0.3-2.3c-0.7-0.6-1.8-0.4-2.3,0.3c-0.1,0.2-0.2,0.3-0.3,0.5
			c-3.6,6-7.7,11.7-12.2,17c-5.3,6.4-11.3,12.2-17.9,17.3c-2.3,1.8-4.8,3.4-7.4,4.8c-0.7,0.5-0.9,1.4-0.5,2.2
			c0.3,0.7,1.1,1.1,1.9,0.8c0.1,0,0.2-0.1,0.3-0.2l2.5-1.5c5.3-3.3,10.3-7.2,14.7-11.7C1530.1,1523.7,1537.3,1514.5,1543.3,1504.6
			L1543.3,1504.6z"/>
		<path class="st6" d="M1603.5,1521.8c0.4-0.7,0.2-1.6-0.5-2.1c-0.1,0-0.1-0.1-0.2-0.1c-0.7-0.5-1.8-0.4-2.3,0.4c0,0,0,0.1-0.1,0.1
			c-0.5,1.3-1.3,2.9-2,4.2c-3.7,7.2-7.8,14.1-12.4,20.7c-4.9,7.8-11.4,14.5-19.1,19.6c-0.7,0.5-0.9,1.4-0.5,2.2
			c0.3,0.7,1.1,1.1,1.9,0.8c0.1,0,0.2-0.1,0.3-0.2c4.5-2.8,8.6-6.3,12-10.4c6.3-7.1,11.8-14.9,16.4-23.2c2.2-4,4.6-8.1,6.4-12.3
			V1521.8z"/>
		<path class="st6" d="M1573.4,1511.7c1-2-1.5-3.7-2.5-1.9l-3,5.6c-4.7,8.5-9.9,16.7-15.5,24.7c-2.8,4-5.9,7.8-9.3,11.3
			c-0.7,0.7-1.4,1.4-2.2,2c-0.6,0.6-1.3,1.2-2,1.7c-0.6,0.5-1.3,0.9-2,1.2h-0.4l0,0h-0.5c-0.3,0-0.7,0-1,0c-2.2,0.3-1.2,3.5,0.8,3.2
			c4.1-1.3,7.7-3.8,10.4-7.1c7.1-7.9,13.3-16.6,18.4-25.9c3-5.2,6.1-10.4,8.8-15.5L1573.4,1511.7z"/>
	</g>
</g>
<path class="st11" d="M647.1,625.3c-11.7,0-21.2-9.5-21.2-21.2c0-11.7,9.5-21.2,21.2-21.2c11.7,0,21.2,9.5,21.2,21.2v0l0,0
	C668.3,615.8,658.8,625.3,647.1,625.3 M712.9,625.3c-11.7,0-21.2-9.5-21.2-21.2s9.5-21.2,21.2-21.2c11.7,0,21.2,9.5,21.2,21.2l0,0
	C734.1,615.8,724.6,625.2,712.9,625.3 M778.7,625.3c-11.7,0-21.2-9.4-21.2-21.1s9.4-21.2,21.1-21.2s21.2,9.4,21.2,21.1c0,0,0,0,0,0
	l0,0C799.8,615.7,790.3,625.2,778.7,625.3 M1970.7,553.2H601c-11,0.1-19.9,9-20,20v81.7h1409.7v-82
	C1990.5,561.9,1981.6,553.2,1970.7,553.2L1970.7,553.2"/>
<path class="st12" d="M2194.8,1782.5c274.5,32.5-756.5,113.7-872.3,54.5c-115.8-59.2-651.7,42.7-884.4-31.7
	c-232.7-74.4,808.3-139,884.4-77.3C1398.7,1789.7,1920.3,1750,2194.8,1782.5z"/>
<g>
	<path class="st13" d="M2112,896.5c40.5,0,73.4-32.9,73.4-73.4c0-40.5-32.9-73.4-73.4-73.4c-40.5,0-73.4,32.9-73.4,73.4l0,0
		C2038.6,863.6,2071.5,896.5,2112,896.5z"/>
	<path class="st7" d="M2112,833.4c5.7,0,10.3-4.6,10.3-10.3s-4.6-10.3-10.3-10.3s-10.3,4.6-10.3,10.3S2106.3,833.4,2112,833.4z"/>
	<path class="st7" d="M2139.9,833.4c5.7,0,10.3-4.6,10.3-10.3s-4.6-10.3-10.3-10.3s-10.3,4.6-10.3,10.3S2134.2,833.4,2139.9,833.4z"
		/>
	<path class="st7" d="M2084.1,833.4c5.7,0,10.3-4.6,10.3-10.3s-4.6-10.3-10.3-10.3s-10.3,4.6-10.3,10.3S2078.4,833.4,2084.1,833.4z"
		/>
</g>
<path class="st14" d="M1933,1158.7c60.6,0,109.7-49.1,109.7-109.6c0-60.6-49.1-109.7-109.6-109.7c-60.6,0-109.7,49.1-109.7,109.6
	l0,0C1823.3,1109.5,1872.4,1158.6,1933,1158.7z"/>
<path class="st7" d="M1933,1120.1c-39.2,0-71.1-31.8-71.1-71.1c0-39.2,31.8-71.1,71.1-71.1c39.2,0,71.1,31.8,71.1,71.1c0,0,0,0,0,0
	l0,0C2003.9,1088.2,1972.2,1119.9,1933,1120.1z M1933,986.7c-34.4,0-62.3,27.9-62.3,62.3s27.9,62.3,62.3,62.3
	c34.4,0,62.3-27.9,62.3-62.3l0,0l0,0C1995.1,1014.7,1967.3,986.9,1933,986.7z"/>
<path class="st7" d="M1933,1095.9c-25.9,0-46.9-21-46.9-46.9c0-25.9,21-46.9,46.9-46.9c25.9,0,46.9,21,46.9,46.9
	C1979.9,1074.9,1958.9,1095.9,1933,1095.9L1933,1095.9z M1933,1010.8c-21.1,0-38.2,17.1-38.2,38.2c0,21.1,17.1,38.2,38.2,38.2
	c21.1,0,38.2-17.1,38.2-38.2v0l0,0C1971.1,1027.9,1954.1,1010.9,1933,1010.8L1933,1010.8z"/>
<path class="st7" d="M1933,1067c9.9,0,18-8.1,18-18c0-9.9-8.1-18-18-18c-9.9,0-18,8.1-18,18v0l0,0C1915,1058.9,1923,1067,1933,1067
	L1933,1067z"/>
<path class="st10" d="M2127.6,590.6c15.2,13.4,8.9,28.4,2.5,35.2c-6.4,6.8-15.7,16.1-20.1,21.3c-4.4,5.1,3.3,12.8-1.8,18.3
	c-5.1,5.5-62-45.5-57.9-52.4c5.5-9.4,13.7-1.5,20.9-7.4c7.2-5.8,14.7-11.6,19.8-17.2S2109.3,574.5,2127.6,590.6z"/>
<path class="st10" d="M2076.4,653.7c3,2.7-6.9,11.3-17.3,2.8c-7.3-6-1.1-19.9,2.6-16.8C2067.5,644.7,2069.6,647.6,2076.4,653.7z"/>
<path class="st10" d="M2141.6,584.6c0.2,4-2.8,7.5-6.8,7.7c-2-2.8-4.7-5.1-7.7-6.8c-0.2-4,2.8-7.5,6.8-7.7
	S2141.4,580.6,2141.6,584.6L2141.6,584.6z"/>
<g>
	
		<rect x="2820.8" y="1742" transform="matrix(0.3419 -0.9398 0.9398 0.3419 299.5643 3933.853)" class="st15" width="275" height="22.2"/>
	
		<rect x="3189.6" y="1615.7" transform="matrix(0.9062 -0.4228 0.4228 0.9062 -441.0883 1517.5759)" class="st15" width="22.2" height="275"/>
	<rect x="3065.3" y="1627.1" class="st15" width="22.2" height="275"/>
	<path class="st15" d="M2833.7,1598.1c37.4-9.4,143.2-7.4,242.7-7.4c100.5,0,205.9-2.2,242.7,7.4v19.3c0,14.7-108.7,26.7-242.7,26.7
		c-134,0-242.7-11.9-242.7-26.7V1598.1z"/>
	<ellipse class="st7" cx="3076.4" cy="1598.1" rx="242.7" ry="26.7"/>
	<path class="st7" d="M3144.8,1513.4c-1.7,19.9-8.2,51.3-15,70.7c-3.5,9.7-21,18.6-47,18.6s-43.7-8.9-47-18.6
		c-3-8.8-13.7-50.5-16.4-71.3"/>
	<path class="st5" d="M3020.5,1512.7c-0.2-1.4-2.4-1.4-2.2,0c0.2,1.6,0.5,3.3,0.7,4.9c2.6,16.6,6.6,33,10.8,49.3
		c1.4,5.6,2.9,11.2,4.6,16.6c1.8,5.6,6.4,9.5,11.4,12.3c8,4.4,17.3,6.5,26.4,7.4c10.9,1.2,22,0.5,32.7-2c7.5-1.8,15.3-4.7,21-10.1
		c2.1-1.8,3.7-4.2,4.7-6.7c1.6-4.2,2.8-8.5,4-12.9c2.8-10,5.1-20.1,7-30.2c1.8-9.3,3.2-18.7,4.1-28.1c0.1-1.4-2.1-1.4-2.2,0
		c-0.2,2.1-0.4,4.1-0.6,6.2c-1.1,9.5-2.8,19-4.8,28.4c-2,9.7-4.3,19.3-7.2,28.7c-1,3.2-1.8,6.8-3.6,9.7c-1.6,2.4-3.7,4.4-6.2,6
		c-7,4.7-15.6,7.1-23.9,8.3c-10.8,1.6-21.7,1.4-32.4-0.6c-7.8-1.4-16-4-22.3-9c-2.2-1.6-3.9-3.7-5.2-6.2c-0.7-1.8-1.4-3.6-1.8-5.5
		c-1.9-6.5-3.5-13-5.2-19.5c-3.8-15.4-7.7-31.2-9.8-47L3020.5,1512.7z"/>
	<path class="st7" d="M3155.5,1478.4v25.2c0,10.3-32.6,18.6-72.8,18.6s-72.8-8.3-72.8-18.6v-25.2"/>
	<path class="st5" d="M3011.1,1478.3c-0.1-0.5-0.5-1-1-1c-0.6-0.1-1.2,0.4-1.2,1v20.4c0,2.1-0.3,4.5,0.2,6.5c1,3.5,4.7,5.9,7.8,7.5
		c5.5,2.7,11.3,4.6,17.3,5.8c8.1,1.8,16.2,3,24.4,3.7c19.2,1.8,38.5,1.5,57.6-1c7.5-0.9,15-2.4,22.3-4.5c4.8-1.5,9.9-3.3,14-6.4
		c1.4-1,2.6-2.3,3.4-3.8c0.7-1.5,0.9-3.2,0.8-4.8v-23.4c-0.1-0.5-0.5-1-1-1c-0.6-0.1-1.2,0.4-1.2,1v18.7c0,2.3,0.2,4.6,0,6.8
		c-0.2,2.9-3.7,5.2-6.2,6.6c-5,2.7-10.6,4.3-16.1,5.7c-7.6,1.8-15.4,3-23.2,3.7c-18.6,1.8-37.3,1.7-55.8-0.3
		c-7.6-0.8-15.1-2.2-22.6-4.1c-5.1-1.4-10.3-3-14.8-5.8c-1.5-0.8-2.7-2-3.8-3.3c-0.8-1.1-1.1-2.4-1-3.7L3011.1,1478.3L3011.1,1478.3
		z"/>
	<ellipse class="st7" cx="3082.7" cy="1478.4" rx="72.8" ry="18.6"/>
	<path class="st5" d="M3011,1478.4c-0.1-0.5-0.5-0.9-1-0.9c-0.6-0.1-1.2,0.4-1.2,1c0,1.1,0.3,2.3,0.9,3.2c1.5,2.6,4.2,4.4,6.8,5.8
		c4,2,8.2,3.6,12.6,4.8c12.6,3.4,25.6,4.9,38.6,5.6c15.2,0.9,30.5,0.4,45.7-1.3c11-1.3,22.4-3.2,32.7-7.6c4.5-1.9,12.1-6,10.4-12.1
		c-0.7-2.7-3.1-4.6-5.3-6.1c-3.5-2.2-7.3-3.9-11.3-5c-11.8-3.8-24.4-5.4-36.8-6.3c-15.3-1.2-30.7-1-46,0.4
		c-11.7,1.2-23.7,2.9-34.8,7c-3.6,1.2-7,3-10,5.3c-1.9,1.6-3.6,3.8-3.6,6.3c0.1,0.5,0.5,1,1,1
		C3010.3,1479.5,3010.9,1479.1,3011,1478.4c0-0.8,0.3-1.6,0.8-2.4c1.5-2.4,4.3-3.9,6.8-5.1c4-1.9,8.3-3.4,12.6-4.4
		c12.2-3.1,24.8-4.5,37.4-5.1c14.5-0.8,29.1-0.4,43.5,1.2c10.7,1.2,21.8,2.9,31.9,7c3.1,1.1,6,2.8,8.5,5c1.5,1.4,2.3,3.2,1.8,5
		c-0.7,2.3-3.1,4-5.1,5.2c-3.6,2-7.4,3.6-11.3,4.7c-11.5,3.5-23.6,5-35.6,5.8c-14.6,1.1-29.2,0.9-43.8-0.4c-11.4-1-23-2.7-33.9-6.4
		c-3.6-1.1-6.9-2.7-10-4.9C3012.7,1482.2,3011,1480.4,3011,1478.4L3011,1478.4z"/>
	<path class="st16" d="M3134,1490c0,0-43.7,13-104.5,0.7c3.7-6.4,19.9-18.1,55.3-9.4c8.9,2.2,23.3-3.2,50.5,9.1"/>
	<path class="st13" d="M3050.6,1685c45.2,36.1-42,59.1-42,59.1S3005.4,1648.9,3050.6,1685z"/>
	<path class="st5" d="M3038.9,1336c1.6,2.1,3.3,4.3,4.9,6.4c10.6,14.1,20.5,28.8,28.6,44.5c5.6,10.5,10,21.7,13,33.2
		c2,8,2.9,16.3,2.6,24.6c-0.3,6.3-1.1,12.6-2.4,18.8c-1.2,5.3-1.9,10.7-2.2,16.1c0.1,0.5,0.5,1,1,1c0.6,0.1,1.2-0.4,1.2-1
		c0-0.6,0.1-1.3,0.1-1.9c0.3-5.4,1.5-10.7,2.5-16.1c1.3-6.5,2-13.1,2.1-19.8c0-8.8-1.3-17.5-3.7-25.9c-3.4-12.1-8.7-23.6-14.7-34.6
		c-9-16.3-19.7-31.7-31.1-46.4C3040,1333.7,3038.1,1334.9,3038.9,1336z"/>
	<path class="st5" d="M3117,1365.2c0.3-1.4-1.9-2-2.2-0.6c-1.5,8-3.2,16-5.2,23.9c-2.2,8.3-4.7,17.1-9.7,24.2
		c-3.3,4.6-7.8,8.2-13,10.6c-1.3,0.6-0.2,2.6,1.1,1.9c3-1.4,5.8-3.2,8.3-5.2c5.4-4.5,8.7-10.9,11.2-17.4
		C3112.3,1390.7,3114.7,1377.8,3117,1365.2L3117,1365.2z"/>
	<path class="st5" d="M3149.4,1807.4c0.7,1.3,2.6,0.1,1.9-1.1c-2.2-4-4.2-8.2-5.8-12.4c-6.8-17.5-8.9-36.5-8.7-55.1
		c0.2-19.2,2.9-38.3,6.4-57.1c3.1-16.9,7-33.6,10.3-50.5c3.2-17,4.9-34.2,5.1-51.4c0.3-16.9-0.8-33.9-4.2-50.4
		c-2.4-12-6.5-23.7-12.2-34.6c-4.2-8-9.8-15.3-16.6-21.3c-5.1-4.6-11-8.1-17.4-10.4c-4.7-1.7-9.8-2.3-14.8-1.7
		c-3.3,0.5-6.9,1.9-8.7,4.9c-0.3,0.5-0.1,1.2,0.4,1.5c0.5,0.3,1.2,0.1,1.5-0.4c0.3-0.5,0.7-1,1.1-1.3c1.1-0.9,2.4-1.6,3.8-2
		c1.9-0.5,3.8-0.8,5.8-0.7c5.3,0.2,10.5,1.6,15.2,4c6.5,3.3,12.3,7.8,17.1,13.3c6.4,7.4,11.6,15.9,15.2,25c5,12.6,8.3,25.8,9.8,39.2
		c2.3,18.5,2.1,37.2,0.7,55.8c-0.6,7.9-1.5,15.7-2.8,23.4c-1.3,7.5-2.9,14.9-4.5,22.4c-3.7,17.5-7.5,35-10.1,52.7
		c-2.8,18.7-4.4,37.7-3,56.5C3136.3,1773.5,3140.5,1791.5,3149.4,1807.4L3149.4,1807.4z"/>
	<path class="st5" d="M2989.3,1901.1c-1.3,0.6-0.2,2.5,1.1,1.9c2.2-1,4.3-2.2,6.3-3.6c9.5-6.7,15.7-17.1,20.2-27.6
		c6.2-14.3,9.8-29.6,12.6-44.8c3.3-18.9,5.5-38,6.8-57.2c1.6-21.4,2.4-42.9,2.9-64.4c0.5-22.3,0.8-44.6,1-66.9
		c0.2-21.6,0.4-43,1-64.6c0.6-19,1.3-38.1,3-57c1.3-14.8,3.1-29.8,6.8-44.2c2.4-9.2,5.6-19.6,12.6-26.3c5.7-5.5,13-5.8,20.2-3
		c1.3,0.5,1.9-1.6,0.6-2.2c-1.9-0.8-3.9-1.3-5.9-1.7c-8-1.2-14.8,2.5-19.6,8.9c-6.5,8.6-9.4,19.8-11.7,30.2
		c-3.3,15.3-4.9,31.1-6.1,46.7c-1.5,19.5-2.1,39.1-2.5,58.7c-0.5,21.8-0.7,43.7-0.9,65.5c-0.2,22.3-0.5,44.7-1.2,67
		c-0.6,21.4-1.6,42.7-3.5,64c-1.6,18.6-3.9,37.3-7.8,55.6c-3.1,14.4-7.1,28.9-14,41.9C3006.3,1887.7,2999.3,1896.7,2989.3,1901.1
		L2989.3,1901.1z"/>
	<path class="st5" d="M3302.2,1679c1.5,0.1,1.4-2.2,0-2.2c-1.4,0-2.8-0.2-4.1-0.6c-2.9-0.8-5.7-2.1-8.2-3.9
		c-2.8-2.1-5.4-4.5-7.7-7.2c-5.8-6.7-10.3-14.6-14.4-22.5c-5.1-9.8-9.5-19.9-13.8-30.1c-4.8-11.4-9.5-22.9-14.3-34.3
		c-5-11.7-10.1-23.2-15.8-34.6c-5.4-11-11.6-21.6-18.6-31.7c-6.3-9.3-13.8-17.7-22.3-25c-8-6.9-17.3-12-27.4-15.1
		c-10.8-3-22.2-3.5-33.2-1.4c-14.2,2.5-27.7,8.5-40.2,15.7l0,0c-0.6,0.3-0.7,1-0.4,1.6c0.3,0.6,1,0.7,1.6,0.4
		c3.4-1.9,6.8-3.8,10.3-5.5c11.9-5.8,24.8-10.2,38.2-11c10.6-0.7,21.2,1.1,31,5.3c9.6,4.3,18.2,10.5,25.5,18c8,8.2,15,17.3,21,27.1
		c6.5,10.6,12.4,21.5,17.6,32.8c5.4,11.4,10.3,23,15.2,34.7c4.6,11.1,9.2,22.4,14,33.4c4.1,9.7,8.7,19.1,13.8,28.3
		c4.1,7.2,8.8,14.3,14.9,19.9C3289.6,1675.4,3295.5,1678.7,3302.2,1679L3302.2,1679z"/>
	<path class="st13" d="M3026.8,1814.2c57.9-1.3,5.7,72.3,5.7,72.3S2968.9,1815.5,3026.8,1814.2z"/>
	<path class="st13" d="M2992,1898.7c40.9,25.9-29.5,52.9-29.5,52.9S2951.1,1872.8,2992,1898.7z"/>
	<path class="st13" d="M3176.8,1482c22.8-53.2,68.1,24.8,68.1,24.8S3154.1,1535.2,3176.8,1482z"/>
	<path class="st13" d="M3099.2,1447.1c53.8-21.5,30.7,65.7,30.7,65.7S3045.5,1468.6,3099.2,1447.1z"/>
	<path class="st13" d="M3063.8,1442.5c20.6,31.3-37.8,27.9-37.8,27.9S3043.2,1411.2,3063.8,1442.5z"/>
	<path class="st13" d="M3253.5,1637.9c56.6-12.3,19.4,69.9,19.4,69.9S3196.9,1650.2,3253.5,1637.9z"/>
	<path class="st13" d="M3302.1,1677.9c11.8-18.4,23.8,13.5,23.8,13.5S3290.3,1696.3,3302.1,1677.9z"/>
	<path class="st13" d="M3144.8,1746.4c11.8-18.4,23.8,13.5,23.8,13.5S3133,1764.8,3144.8,1746.4z"/>
	<path class="st13" d="M3209.4,1560c28.1-15.8,21.8,34,21.8,34S3181.4,1575.8,3209.4,1560z"/>
	<path class="st13" d="M3252.1,1593.1c23.7-36.8,47.7,27,47.7,27S3228.4,1629.9,3252.1,1593.1z"/>
	<path class="st13" d="M3146.6,1780.2c49.6,5.2-3,62.3-3,62.3S3097.1,1775.1,3146.6,1780.2z"/>
	<path class="st13" d="M3142,1680.5c45.8,19.6-21.3,58.6-21.3,58.6S3096.2,1660.9,3142,1680.5z"/>
	<path class="st13" d="M3045.8,1318c45.8,19.6-21.3,58.6-21.3,58.6S3000.1,1298.3,3045.8,1318z"/>
	<path class="st13" d="M3058.2,1381.6c34.5,14.8-16,44.1-16,44.1S3023.7,1366.9,3058.2,1381.6z"/>
	<path class="st13" d="M3000.7,1408.5c27,30.1-35.8,35.9-35.8,35.9S2973.6,1378.4,3000.7,1408.5z"/>
	<path class="st13" d="M2988,1459.7c20.3,22.7-26.9,27-26.9,27S2967.7,1437,2988,1459.7z"/>
	<path class="st13" d="M3123.2,1345.5c29.6-22.9,30.7,35.5,30.7,35.5S3093.6,1368.4,3123.2,1345.5z"/>
	<path class="st13" d="M3104.8,1389.6c25.9-7.3,10.9,31.8,10.9,31.8S3078.9,1396.8,3104.8,1389.6z"/>
	<path class="st13" d="M3056.1,1759.3c29.5-17.3,23.6,35.7,23.6,35.7S3026.5,1776.6,3056.1,1759.3z"/>
	<path class="st13" d="M3026.2,1595.9c27.1,20.9-24.3,35.3-24.3,35.3S2999.1,1575,3026.2,1595.9z"/>
	<path class="st13" d="M3041.6,1529.5c30.7-15.1,21,37.3,21,37.3S3011,1544.6,3041.6,1529.5z"/>
	<path class="st13" d="M3145.6,1578c40.6-16.3,23.2,49.6,23.2,49.6S3105,1594.3,3145.6,1578z"/>
</g>
<g>
	<polyline class="st10" points="540.3,1055.2 346,1093.5 371.5,1222.7 565.8,1184.4 540.3,1055.2 	"/>
	<path class="st7" d="M538.3,1055.3l-8,9.8l-19.2,23.7l-23.2,28.5l-20.1,24.8l-6.6,8.1c-1.1,1.2-2.2,2.5-3.1,3.8
		c0,0.1-0.1,0.1-0.1,0.2l2-0.3l-11.1-6.1l-26.8-14.6l-32.3-17.6l-28-15.3c-4.5-2.5-9-5.1-13.6-7.4l-0.2-0.1c-1.8-1-3.5,1.8-1.6,2.8
		l11.1,6.1l26.8,14.6l32.3,17.6l28,15.3c4.5,2.5,9,5.1,13.6,7.4l0.2,0.1c0.6,0.4,1.4,0.3,2-0.3l8-9.8l19.2-23.7l23.2-28.5l20.1-24.8
		c3.2-4,6.5-8,9.7-12l0.1-0.2C541.9,1056,539.6,1053.7,538.3,1055.3L538.3,1055.3z"/>
	
		<rect x="621.9" y="1217.4" transform="matrix(0.1097 -0.994 0.994 0.1097 -718.3798 1941.2581)" class="st7" width="205.1" height="308.4"/>
	<path class="st5" d="M889.1,1285.1l-8.2-0.9l-22.4-2.5l-33-3.6l-40.2-4.4l-44.2-4.9l-44.4-4.9l-41.6-4.6l-35-3.9l-25.2-2.8
		c-4-0.4-8-1.1-12-1.3l-0.5-0.1c-0.9-0.1-1.5,0.8-1.6,1.6l-2.2,20.4l-5.4,48.6l-6.5,59.1l-5.6,50.8l-1.8,16.7
		c-0.3,2.7-0.8,5.4-0.9,8v0.3c-0.1,0.9,0.8,1.5,1.6,1.6l8.2,0.9l22.4,2.5l32.9,3.6l40.2,4.5l44.2,4.9l44.5,4.9l41.6,4.6l35,3.8
		l25.2,2.8c4,0.4,8,1.1,12,1.3l0.5,0.1c0.9,0.1,1.5-0.8,1.6-1.6l2.2-20.4l5.4-48.6l6.5-59.1l5.6-50.7l1.8-16.8
		c0.3-2.6,0.8-5.4,0.9-8v-0.3c0.2-2.1-3-2.1-3.2,0l-2.2,20.4l-5.4,48.6l-6.5,59.1l-5.6,50.8l-1.8,16.7c-0.5,2.6-0.8,5.3-0.9,8
		c0,0.1,0,0.2,0,0.3l1.6-1.6l-8.2-0.9l-22.4-2.5l-33-3.6l-40.2-4.4l-44.2-4.9l-44.4-4.9l-41.6-4.6l-35-3.9l-25.2-2.8
		c-4-0.4-8-1.2-12-1.3H560l1.6,1.6l2.2-20.4l5.4-48.6l6.5-59.1l5.6-50.8l1.8-16.7c0.5-2.7,0.8-5.3,0.9-8v-0.3l-1.6,1.6l8.2,0.9
		l22.4,2.5l33,3.6l40.2,4.4l44.2,4.9l44.4,4.9l41.6,4.6l35,3.9l25.2,2.8c4,0.4,8,1,12,1.3h0.5
		C891.2,1288.5,891.1,1285.3,889.1,1285.1z"/>
	<path class="st7" d="M887.2,1288.2L725.3,1395c-2.2,1.4-5.1,1.1-6.9-0.8l-134.6-139.9"/>
	<path class="st5" d="M886.4,1286.8l-16.3,10.8l-39.2,25.9l-47.1,31.1l-40.3,26.6c-6.3,4.2-12.5,8.5-18.9,12.5
		c-3,1.9-4.9-0.3-6.8-2.3l-8.2-8.5l-30.3-31.5l-39-40.5l-35.3-36.7l-19.2-19.9l-0.9-0.9c-1.4-1.5-3.7,0.8-2.3,2.3l13.7,14.3
		l32.8,34.1l39.2,40.8l33.5,34.9c5,5.2,10,10.7,15.1,15.8c2.4,2.4,6.1,2.8,9,1c0.6-0.4,1.2-0.8,1.8-1.2l9.4-6.2l36.4-24l47.1-31.1
		l42.6-28.1l23.5-15.5l1.1-0.7c1.7-1.1,0.1-4-1.6-2.8L886.4,1286.8z"/>
	<path class="st5" d="M752.3,1377.6l11,11.4l26.3,27.3l31.7,32.9l27.4,28.5c4.4,4.6,8.7,9.4,13.4,13.9l0.2,0.2
		c1.4,1.5,3.7-0.8,2.3-2.3l-11-11.4l-26.3-27.3l-31.7-32.9l-27.4-28.5c-4.4-4.6-8.7-9.4-13.3-13.9l-0.2-0.2
		C753.2,1373.8,750.9,1376.1,752.3,1377.6L752.3,1377.6z"/>
	<line class="st17" x1="562.4" y1="1455.3" x2="693.7" y2="1368.5"/>
	<path class="st5" d="M563.1,1456.7l13.1-8.6l31.2-20.6l38-25.1l32.8-21.6c5.3-3.5,10.7-6.9,15.9-10.5l0.2-0.2
		c1.7-1.1,0.1-3.9-1.6-2.8l-13.1,8.6l-31.2,20.6l-38,25.1l-32.8,21.6c-5.3,3.5-10.7,6.9-15.9,10.5l-0.2,0.2
		C559.8,1455,561.4,1457.8,563.1,1456.7L563.1,1456.7z"/>
</g>
<g>
	<path class="st6" d="M1464.8,686.2c15.2-9.8,26.7-26.7,27.1-53.1c0.5-32.1-16.9-60.5-30.5-69.3c-25.9-16.7-53.1-25.5-101.3-9.1
		c-33.5,11.5-46.6,27.2-50.5,58.1c-3.9,30.9,14.9,60.9,14.9,60.9S1449.7,696,1464.8,686.2z"/>
	<path class="st7" d="M1352.4,588.8c0,0,28.3,61.3,75.9,70.7c51-49.7,68.4,46.6,21.3,36.7c-21.3,51.4-94.5,51.2-108.8,40.4
		c-14.3-10.8-16.4-81-16.4-81C1329.9,594.4,1352.4,588.8,1352.4,588.8z"/>
	<path class="st6" d="M1323.2,655.6v0.8c0,4.2,0.3,8.4,0.7,12.7c0.5,7.6,1.3,15.2,2.2,22.8c0.9,8.3,2.3,16.6,4.2,24.8
		c0.8,3.5,1.8,7,3.1,10.4c0.8,2.9,2.1,5.6,3.9,8c2.7,3.6,6.7,6,11.1,6.9c6,1.6,12.1,2.4,18.2,2.4c7.8,0.1,15.6-0.6,23.2-2
		c8.3-1.5,16.4-4.1,24.1-7.6c8-3.7,15.4-8.6,21.8-14.7c6.7-6.6,12-14.4,15.5-23.2l-2.1,1.2l3.6,0.5c7.4,1.1,14.9-1.5,19.9-7.1
		c4.5-5.6,6.7-12.6,6.4-19.7c-0.2-7.2-2.5-14.1-6.8-19.9c-4.2-5.7-11-8.9-18.1-8.4c-10.4,0.7-19.8,7.8-27,14.9l1.7-0.3
		c-1-0.4-2.2-0.5-3.4-0.9c-8.8-2.3-17.2-6.2-24.7-11.5c-7.4-5.1-14.1-11.1-20.2-17.7c-5.4-5.9-10.3-12.2-14.7-18.8
		c-3.2-4.9-6.3-9.9-9.2-15l-3-6.1c-0.5-0.6-1.2-1-2-0.9c-1.1,0.3-2.2,0.9-3.2,1.6c-6.1,4.2-10.9,10-13.9,16.7
		c-7.1,15.8-11.2,32.9-12,50.2c-0.2,0.9,0.5,1.8,1.4,2c0.9,0.2,1.8-0.5,2-1.4c0-0.2,0-0.4,0-0.6c0.7-11,2.7-21.9,6-32.5
		c1.7-6.2,4.2-12.2,7.3-17.9c1-2.1,2.2-4,3.5-5.9l0.5-0.8v-0.4c0.4-0.3,0.5-0.7,0.8-1c0.3-0.3,1.2-1.2,1.7-1.9
		c0.9-1.1,1.9-2.1,3.1-2.9c-0.5,0.4,0,0,0.3-0.3l0.4-0.7l1.2-0.7l1-0.5h0.3l0,0c0.4,0,0.5,0,0.7,0l-1.9-0.9c0,0,0,0.4,0.4,0.5
		c2,4.2,4.2,8.3,6.6,12.2c4.4,7.6,9.5,14.9,15.1,21.7c6.6,8.3,14.2,15.7,22.6,22.1c8.9,6.9,19.1,11.8,29.9,14.6l2.2,0.5
		c0.9,0.2,1.8-0.2,2.4-0.9c1-1,2-2,3-2.8c1.9-1.7,3.8-3.2,6-4.6c3.2-2.2,6.7-4,10.4-5.2l2.4-0.5h0.7l0,0h1h4.9
		c1.4,0.3,2.7,0.7,4,1.2l0,0h0.5l0.8,0.5l1.7,1l0.9,0.5c-0.4,0,0,0,0,0l0.4,0.4c0.5,0.5,1,0.8,1.5,1.3c0.5,0.4,1,1,1.3,1.5
		c0,0,0.4,0.5,0,0.4v0.3l0.5,0.9c0.7,1.1,1.3,2.5,2.1,3.7l0.5,1v0.3l0,0v0.5c0,0.7,0.5,1.3,0.7,2l1,4.2c-0.1,0.3-0.1,0.7,0,1v0.7
		c0,0.7,0,1.6,0,2.2c0.2,1.4,0.2,2.8,0,4.2c0.1,0.7,0.1,1.4,0,2.1v0.8c0.1,0.3,0.1,0.7,0,1c-0.3,1.4-0.7,2.8-1.1,4.1
		c-0.1,0.3-0.2,0.7-0.4,1c0-0.3,0,0,0,0v0.3l-1,1.9l-1,1.7l-0.4,0.5l0,0l-0.7,0.7c-0.4,0.5-0.8,1-1.3,1.3l-0.8,0.7l-0.4,0.3
		c0.4,0,0,0,0,0c-1.1,0.8-2.3,1.5-3.6,2c0.4,0,0,0-0.3,0h-0.5l-1,0.4l-2.2,0.5h-0.7h-0.4h-1.1h-2.5c-1.7-0.1-3.5-0.3-5.2-0.7h-0.3
		c-0.9-0.1-1.8,0.5-2,1.3c-0.9,2-1.9,4.1-2.9,6.1c-4.4,7.7-10.3,14.5-17.3,19.9c-6.6,5.2-13.9,9.3-21.8,12.2
		c-14.4,5.2-29.7,7.4-45,6.4c-2.8-0.2-5.7-0.6-8.4-1.2c-2.4-0.5-4.8-1.2-7.1-2h-0.3c0,0,0.3,0,0,0l-0.1,0.4l-1.2-0.7
		c-0.4-0.1-0.9-0.4-1.2-0.7l0,0l-0.5-0.5c-0.4-0.4-0.7-0.8-1-1.2s-0.3-0.4-0.3-0.4l0,0l-0.5-0.7c-0.7-1.1-1.3-2.2-1.9-3.4l-0.5-1
		l-0.3-0.7c-0.4-0.7-0.5-1.5-0.8-2.2c-0.5-1.7-1-3.2-1.6-4.9c-1.1-3.6-2-7.4-2.7-11.1c-1.5-8-2.5-16.1-3.4-24.2
		c-0.7-6.7-1.3-13.5-1.7-20.7c0-2.8-0.4-5.8-0.4-8.6C1326.5,652.6,1322.7,653.5,1323.2,655.6z"/>
</g>
<g>
	<path class="st18" d="M2026.9,1581.3c8.7,8.9,48.4-7.7,104-35.1c52.6-25.8,151.7-26.1,113.6-67.5
		C2174.5,1402.8,1982.8,1536.4,2026.9,1581.3z"/>
	<path class="st19" d="M2185.4,1486.5c0,0-174.2-31.9-255.2,314"/>
	<path class="st18" d="M1858.6,1508.7c-13.6-5.7-27.8-7-41.3-1.6c-37.3,15.1,26.7,45.6,52.9,78.4c23.2,29,41.2,49.7,51.5,54
		c1.6,0.8,3.4,1,5.1,0.5C1960.7,1627.6,1913.8,1531.8,1858.6,1508.7"/>
	<path class="st19" d="M1853.3,1530.4c0,0,115.1,24.3,77,270.2"/>
	<path class="st18" d="M1978.7,1531c-10.3,0-23.3-32.9-39.5-81.6c-15.2-45.8-47.9-118.9-1.5-120.4
		C2022.9,1326.5,2030.7,1531.1,1978.7,1531z"/>
	<path class="st19" d="M1946.7,1356.8c0,0,104.7,103.9-16.5,443.8"/>
</g>
</svg>
